<?xml version="1.0" encoding="utf-8"?>
<!-- Generator: Adobe Illustrator 15.1.0, SVG Export Plug-In . SVG Version: 6.00 Build 0)  -->
<!DOCTYPE svg PUBLIC "-//W3C//DTD SVG 1.1//EN" "http://www.w3.org/Graphics/SVG/1.1/DTD/svg11.dtd">
<svg version="1.1" xmlns="http://www.w3.org/2000/svg" xmlns:xlink="http://www.w3.org/1999/xlink" x="0px" y="0px" width="800px"
	 height="600px" viewBox="0 0 800 600" enable-background="new 0 0 800 600" xml:space="preserve">
<g id="Layer_1">
	<circle opacity="0.54" fill="#42D7FF" stroke="#000000" stroke-miterlimit="10" cx="388" cy="300" r="301"/>
	<g opacity="0.54">
		<path fill="#999999" stroke="#000000" stroke-miterlimit="10" d="M701.58,359.729c-102.232-38.59-204.039-78.528-302.177-126.766
			C315.461,191.703,235,144.22,155.036,95.81c2.418-3.748,3.633-5.603,6.069-9.271c80.044,49.487,160.588,98.071,244.668,140.468
			c98.086,49.459,199.921,90.654,302.221,130.462C705.448,358.336,704.164,358.786,701.58,359.729z"/>
	</g>
	<g opacity="0.43">
		<g>
			<path fill="#F89F9F" d="M395.839,45.911c-9.321,16.188-15.591,25.504-28.051,47.49c-19.068,18.138-31.38,74.14-45.147,102.305
				c-43.299,53.533-93.467,72.625-155.642,45.454c-23.491-12.443-47.927-30.1-71.909-49.604
				c97.591,87.729,184.074,115.314,248.174,52.641c19.242-39.56,40.245-87.806,50.045-158.938
				C395.052,69.995,402.693,45.827,395.839,45.911z"/>
		</g>
	</g>
</g>
<g id="Layer_2">
	<g>
		<g>
			<path fill="#F89F9F" d="M641.935,310.523c-30.481,8.708-59.572,17.867-89.249,26.605c-47.873-1.294-63.465,57.229-78.695,74.746
				c-73.385,53.65-150.255,81.121-282.227,39.263c-29.767-2.531-57.926-6.157-76.174-2.447
				c189.084,94.102,378.262,141.577,479.285,61.07c26.551-39.271,50.064-86.655,57.37-145.801
				C653.863,347.877,663.876,310.016,641.935,310.523z"/>
		</g>
	</g>
	<g opacity="0.3">
		<path fill="#999999" stroke="#000000" stroke-miterlimit="10" d="M330.463,382.076c56.966-20.382,112.757-43.429,167.028-70.202
			c61.665-25.754,123.334-51.501,184.998-77.257c-167.012,99.041-346.187,182.658-535.605,228.132
			C208.081,435.866,269.269,408.964,330.463,382.076z"/>
	</g>
	<g opacity="0.54">
		<path fill="#D1D3D4" d="M631.538,89.762C550.382,262.418,469.179,435.054,388,607.699
			c34.363-69.172,70.914-137.145,109.66-203.959c17.679-31.749,35.354-63.499,53.024-95.252
			C579.968,236.435,606.893,163.53,631.538,89.762z"/>
	</g>
</g>
</svg>
