<?xml version="1.0" encoding="utf-8"?>
<!-- Generator: Adobe Illustrator 15.1.0, SVG Export Plug-In . SVG Version: 6.00 Build 0)  -->
<!DOCTYPE svg PUBLIC "-//W3C//DTD SVG 1.1//EN" "http://www.w3.org/Graphics/SVG/1.1/DTD/svg11.dtd">
<svg version="1.1" id="Layer_1" xmlns="http://www.w3.org/2000/svg" xmlns:xlink="http://www.w3.org/1999/xlink" x="0px" y="0px"
	 width="800px" height="600px" viewBox="0 0 800 600" enable-background="new 0 0 800 600" xml:space="preserve">
<filter  y="-20%" x="-20%" width="140%" height="140%" id="AI_BevelShadow_1">
	<feGaussianBlur  result="blur" in="SourceAlpha" stdDeviation="4"></feGaussianBlur>
	<feOffset  result="offsetBlur" dy="4" dx="4" in="blur"></feOffset>
	
		<feSpecularLighting  result="specOut" specularConstant="1" surfaceScale="5" specularExponent="10" style="lighting-color:white" in="blur">
		<fePointLight  y="-10000" x="-5000" z="-20000"></fePointLight>
	</feSpecularLighting>
	<feComposite  operator="in" result="specOut" in2="SourceAlpha" in="specOut"></feComposite>
	<feComposite  operator="arithmetic" result="litPaint" k3="1" k4="0" k1="0" k2="1" in2="specOut" in="SourceGraphic">
		</feComposite>
	<feMerge>
		<feMergeNode  in="offsetBlur"></feMergeNode>
		<feMergeNode  in="litPaint"></feMergeNode>
	</feMerge>
</filter>
<g filter="url(#AI_BevelShadow_1)">
	<path fill="#EAE8E8" d="M104.318,151.515c-0.908-10.961-2.372-21.005-4.386-30.144c-2.018-9.126-4.588-16.699-7.712-22.707
		c-3.129-5.994-6.91-9.003-11.341-9.003c-10.487,0-18.049,15.146-22.685,45.412c-4.641,30.278-6.957,80.39-6.957,150.33
		c0,33.41,0.401,63.689,1.21,90.824c0.803,27.147,2.268,50.244,4.386,69.293c2.117,19.061,5.141,33.668,9.073,43.845
		c3.932,10.18,9.021,15.269,15.274,15.269c2.618,0,5.491-1.823,8.62-5.481c3.125-3.645,6.049-9.126,8.771-16.443
		c2.722-7.303,4.991-16.564,6.805-27.794c1.815-11.219,2.723-24.395,2.723-39.541v-57.156H79.365v-82.996h70.472v301.443h-32.06
		v-51.675h-0.605c-5.245,21.923-11.545,37.46-18.903,46.585c-7.363,9.127-16.182,13.703-26.465,13.703
		c-13.308,0-24.148-6.008-32.513-18.008c-8.37-12.001-14.924-30.537-19.66-55.591c-4.74-25.055-7.916-55.982-9.528-92.782
		c-1.615-36.799-2.419-79.471-2.419-128.015c0-46.977,1.158-88.207,3.478-123.708c2.316-35.491,6.3-65.109,11.947-88.868
		c5.643-23.745,13.104-41.62,22.382-53.633C54.763,12.673,66.36,6.666,80.273,6.666c23.789,0,40.931,15.268,51.417,45.803
		c10.481,30.536,15.727,74.26,15.727,131.147h-41.738C105.679,173.181,105.225,162.476,104.318,151.515z"/>
	<path fill="none" stroke="#000000" stroke-miterlimit="10" d="M104.318,151.515c-0.908-10.961-2.372-21.005-4.386-30.144
		c-2.018-9.126-4.588-16.699-7.712-22.707c-3.129-5.994-6.91-9.003-11.341-9.003c-10.487,0-18.049,15.146-22.685,45.412
		c-4.641,30.278-6.957,80.39-6.957,150.33c0,33.41,0.401,63.689,1.21,90.824c0.803,27.147,2.268,50.244,4.386,69.293
		c2.117,19.061,5.141,33.668,9.073,43.845c3.932,10.18,9.021,15.269,15.274,15.269c2.618,0,5.491-1.823,8.62-5.481
		c3.125-3.645,6.049-9.126,8.771-16.443c2.722-7.303,4.991-16.564,6.805-27.794c1.815-11.219,2.723-24.395,2.723-39.541v-57.156
		H79.365v-82.996h70.472v301.443h-32.06v-51.675h-0.605c-5.245,21.923-11.545,37.46-18.903,46.585
		c-7.363,9.127-16.182,13.703-26.465,13.703c-13.308,0-24.148-6.008-32.513-18.008c-8.37-12.001-14.924-30.537-19.66-55.591
		c-4.74-25.055-7.916-55.982-9.528-92.782c-1.615-36.799-2.419-79.471-2.419-128.015c0-46.977,1.158-88.207,3.478-123.708
		c2.316-35.491,6.3-65.109,11.947-88.868c5.643-23.745,13.104-41.62,22.382-53.633C54.763,12.673,66.36,6.666,80.273,6.666
		c23.789,0,40.931,15.268,51.417,45.803c10.481,30.536,15.727,74.26,15.727,131.147h-41.738
		C105.679,173.181,105.225,162.476,104.318,151.515z"/>
</g>
<g filter="url(#AI_BevelShadow_1)">
	<path fill="#EAE8E8" d="M175.697,180.094c1.511-35.749,4.839-66.418,9.98-92c5.142-25.568,12.552-45.533,22.23-59.896
		c9.678-14.352,22.684-21.532,39.016-21.532s29.338,7.18,39.017,21.532c9.678,14.363,17.088,34.328,22.229,59.896
		c5.142,25.582,8.469,56.251,9.981,92c1.512,35.759,2.269,74.772,2.269,117.053c0,42.806-0.757,81.954-2.269,117.444
		c-1.512,35.504-4.839,66.04-9.981,91.608c-5.142,25.581-12.551,45.154-22.229,58.723c-9.679,13.567-22.684,20.357-39.017,20.357
		s-29.338-6.79-39.016-20.357c-9.679-13.568-17.088-33.142-22.23-58.723c-5.142-25.568-8.469-56.104-9.98-91.608
		c-1.513-35.49-2.269-74.638-2.269-117.444C173.428,254.866,174.184,215.853,175.697,180.094z M218.04,393.061
		c0.705,26.363,2.118,47.76,4.234,64.203c2.117,16.442,5.142,28.456,9.073,36.017c3.933,7.571,9.121,11.352,15.577,11.352
		c6.451,0,11.644-3.781,15.576-11.352c3.932-7.562,6.956-19.575,9.074-36.017c2.117-16.443,3.525-37.84,4.234-64.203
		c0.704-26.353,1.059-58.332,1.059-95.914c0-37.584-0.354-69.415-1.059-95.521c-0.709-26.095-2.117-47.493-4.234-64.205
		c-2.118-16.699-5.142-28.835-9.074-36.407c-3.932-7.562-9.125-11.354-15.576-11.354c-6.456,0-11.644,3.792-15.577,11.354
		c-3.932,7.572-6.957,19.708-9.073,36.407c-2.117,16.712-3.53,38.109-4.234,64.205c-0.709,26.106-1.059,57.937-1.059,95.521
		C216.981,334.729,217.331,366.708,218.04,393.061z"/>
	<path fill="none" stroke="#000000" stroke-miterlimit="10" d="M175.697,180.094c1.511-35.749,4.839-66.418,9.98-92
		c5.142-25.568,12.552-45.533,22.23-59.896c9.678-14.352,22.684-21.532,39.016-21.532s29.338,7.18,39.017,21.532
		c9.678,14.363,17.088,34.328,22.229,59.896c5.142,25.582,8.469,56.251,9.981,92c1.512,35.759,2.269,74.772,2.269,117.053
		c0,42.806-0.757,81.954-2.269,117.444c-1.512,35.504-4.839,66.04-9.981,91.608c-5.142,25.581-12.551,45.154-22.229,58.723
		c-9.679,13.567-22.684,20.357-39.017,20.357s-29.338-6.79-39.016-20.357c-9.679-13.568-17.088-33.142-22.23-58.723
		c-5.142-25.568-8.469-56.104-9.98-91.608c-1.513-35.49-2.269-74.638-2.269-117.444
		C173.428,254.866,174.184,215.853,175.697,180.094z M218.04,393.061c0.705,26.363,2.118,47.76,4.234,64.203
		c2.117,16.442,5.142,28.456,9.073,36.017c3.933,7.571,9.121,11.352,15.577,11.352c6.451,0,11.644-3.781,15.576-11.352
		c3.932-7.562,6.956-19.575,9.074-36.017c2.117-16.443,3.525-37.84,4.234-64.203c0.704-26.353,1.059-58.332,1.059-95.914
		c0-37.584-0.354-69.415-1.059-95.521c-0.709-26.095-2.117-47.493-4.234-64.205c-2.118-16.699-5.142-28.835-9.074-36.407
		c-3.932-7.562-9.125-11.354-15.576-11.354c-6.456,0-11.644,3.792-15.577,11.354c-3.932,7.572-6.957,19.708-9.073,36.407
		c-2.117,16.712-3.53,38.109-4.234,64.205c-0.709,26.106-1.059,57.937-1.059,95.521C216.981,334.729,217.331,366.708,218.04,393.061
		z"/>
</g>
<g filter="url(#AI_BevelShadow_1)">
	<path fill="#EAE8E8" d="M442.005,17.628l57.163,559.038H453.8l-9.98-118.229h-57.466l-9.981,118.229h-45.367l57.163-559.038
		H442.005z M436.258,366.047l-20.869-251.333h-0.604l-20.87,251.333H436.258z"/>
	<path fill="none" stroke="#000000" stroke-miterlimit="10" d="M442.005,17.628l57.163,559.038H453.8l-9.98-118.229h-57.466
		l-9.981,118.229h-45.367l57.163-559.038H442.005z M436.258,366.047l-20.869-251.333h-0.604l-20.87,251.333H436.258z"/>
</g>
<g filter="url(#AI_BevelShadow_1)">
	<path fill="#EAE8E8" d="M514.29,17.628h43.553v466.648h77.125v92.39H514.29V17.628z"/>
	<path fill="none" stroke="#000000" stroke-miterlimit="10" d="M514.29,17.628h43.553v466.648h77.125v92.39H514.29V17.628z"/>
</g>
<g filter="url(#AI_BevelShadow_1)">
	<path fill="#EAE8E8" d="M689.409,418.507c0,13.052,0.402,24.931,1.209,35.624c0.803,10.705,2.316,19.709,4.537,27.013
		c2.216,7.316,5.189,13.054,8.922,17.225c3.729,4.185,8.417,6.264,14.063,6.264c6.654,0,12.651-5.603,17.996-16.833
		c5.34-11.219,8.015-28.579,8.015-52.067c0-12.529-0.657-23.354-1.966-32.493c-1.313-9.127-3.478-17.348-6.502-24.663
		c-3.025-7.304-7.009-13.958-11.947-19.967c-4.944-5.994-11.04-12.136-18.299-18.399c-9.678-8.343-18.048-17.482-25.104-27.404
		c-7.06-9.912-12.958-21.531-17.693-34.841c-4.74-13.312-8.219-28.702-10.434-46.197c-2.221-17.481-3.328-37.704-3.328-60.679
		c0-55.321,5.945-96.562,17.845-123.709c11.895-27.134,28.226-40.713,48.997-40.713c9.679,0,18.601,2.739,26.767,8.22
		s15.222,14.362,21.171,26.622c5.946,12.271,10.586,27.929,13.913,46.978c3.327,19.06,4.991,41.889,4.991,68.51v15.658h-41.739
		c0-26.62-1.815-47.1-5.444-61.462c-3.63-14.35-9.679-21.531-18.147-21.531c-4.84,0-8.875,1.834-12.098,5.479
		c-3.227,3.66-5.798,8.492-7.712,14.485c-1.919,6.008-3.228,12.92-3.932,20.75c-0.708,7.83-1.059,15.927-1.059,24.271
		c0,17.225,1.409,31.709,4.235,43.455c2.821,11.745,8.87,22.584,18.147,32.494l33.572,37.582
		c8.265,9.395,15.018,19.183,20.264,29.359c5.241,10.18,9.423,21.141,12.552,32.886c3.124,11.745,5.293,24.665,6.503,38.758
		c1.209,14.092,1.814,29.752,1.814,46.977c0,58.993-6.606,101.921-19.811,128.798c-13.208,26.891-31.606,40.323-55.197,40.323
		c-24.603,0-42.192-13.824-52.778-41.498c-10.586-27.661-15.879-67.336-15.879-119.011v-22.706h43.554V418.507z"/>
	<path fill="none" stroke="#000000" stroke-miterlimit="10" d="M689.409,418.507c0,13.052,0.402,24.931,1.209,35.624
		c0.803,10.705,2.316,19.709,4.537,27.013c2.216,7.316,5.189,13.054,8.922,17.225c3.729,4.185,8.417,6.264,14.063,6.264
		c6.654,0,12.651-5.603,17.996-16.833c5.34-11.219,8.015-28.579,8.015-52.067c0-12.529-0.657-23.354-1.966-32.493
		c-1.313-9.127-3.478-17.348-6.502-24.663c-3.025-7.304-7.009-13.958-11.947-19.967c-4.944-5.994-11.04-12.136-18.299-18.399
		c-9.678-8.343-18.048-17.482-25.104-27.404c-7.06-9.912-12.958-21.531-17.693-34.841c-4.74-13.312-8.219-28.702-10.434-46.197
		c-2.221-17.481-3.328-37.704-3.328-60.679c0-55.321,5.945-96.562,17.845-123.709c11.895-27.134,28.226-40.713,48.997-40.713
		c9.679,0,18.601,2.739,26.767,8.22s15.222,14.362,21.171,26.622c5.946,12.271,10.586,27.929,13.913,46.978
		c3.327,19.06,4.991,41.889,4.991,68.51v15.658h-41.739c0-26.62-1.815-47.1-5.444-61.462c-3.63-14.35-9.679-21.531-18.147-21.531
		c-4.84,0-8.875,1.834-12.098,5.479c-3.227,3.66-5.798,8.492-7.712,14.485c-1.919,6.008-3.228,12.92-3.932,20.75
		c-0.708,7.83-1.059,15.927-1.059,24.271c0,17.225,1.409,31.709,4.235,43.455c2.821,11.745,8.87,22.584,18.147,32.494l33.572,37.582
		c8.265,9.395,15.018,19.183,20.264,29.359c5.241,10.18,9.423,21.141,12.552,32.886c3.124,11.745,5.293,24.665,6.503,38.758
		c1.209,14.092,1.814,29.752,1.814,46.977c0,58.993-6.606,101.921-19.811,128.798c-13.208,26.891-31.606,40.323-55.197,40.323
		c-24.603,0-42.192-13.824-52.778-41.498c-10.586-27.661-15.879-67.336-15.879-119.011v-22.706h43.554V418.507z"/>
</g>
<rect id="_x3C_Slice_x3E_" x="-3" fill="none" width="817" height="611"/>
<rect id="_x3C_Slice_x3E__4_" fill="none" width="798" height="598"/>
</svg>
