<?xml version="1.0" encoding="utf-8"?>
<!-- Generator: Adobe Illustrator 15.1.0, SVG Export Plug-In . SVG Version: 6.00 Build 0)  -->
<!DOCTYPE svg PUBLIC "-//W3C//DTD SVG 1.1//EN" "http://www.w3.org/Graphics/SVG/1.1/DTD/svg11.dtd">
<svg version="1.1" id="Layer_1" xmlns="http://www.w3.org/2000/svg" xmlns:xlink="http://www.w3.org/1999/xlink" x="0px" y="0px"
	 width="800px" height="600px" viewBox="0 0 800 600" enable-background="new 0 0 800 600" xml:space="preserve">
<filter  y="-20%" x="-20%" width="140%" height="140%" id="AI_BevelShadow_1">
	<feGaussianBlur  result="blur" in="SourceAlpha" stdDeviation="4"></feGaussianBlur>
	<feOffset  result="offsetBlur" dy="4" dx="4" in="blur"></feOffset>
	
		<feSpecularLighting  result="specOut" specularConstant="1" surfaceScale="5" specularExponent="10" style="lighting-color:white" in="blur">
		<fePointLight  y="-10000" x="-5000" z="-20000"></fePointLight>
	</feSpecularLighting>
	<feComposite  operator="in" result="specOut" in2="SourceAlpha" in="specOut"></feComposite>
	<feComposite  operator="arithmetic" result="litPaint" k3="1" k4="0" k1="0" k2="1" in2="specOut" in="SourceGraphic">
		</feComposite>
	<feMerge>
		<feMergeNode  in="offsetBlur"></feMergeNode>
		<feMergeNode  in="litPaint"></feMergeNode>
	</feMerge>
</filter>
<g display="none">
	<path display="inline" fill="#EAE8E8" filter="url(#AI_BevelShadow_1)" d="M64.02,434.988h0.788L92.666,13.917h39.161
		L88.725,583.319H40.103L-3,13.917h40.474L64.02,434.988z"/>
	<path display="inline" fill="#EAE8E8" filter="url(#AI_BevelShadow_1)" d="M219.351,13.917l49.672,569.402h-39.422l-8.674-120.42
		H170.99l-8.673,120.42h-39.424l49.674-569.402H219.351z M214.356,368.796l-18.136-255.992h-0.525l-18.134,255.992H214.356z"/>
	<path display="inline" fill="#EAE8E8" filter="url(#AI_BevelShadow_1)" d="M282.164,13.917h37.846v475.299h67.019v94.104H282.164
		V13.917z"/>
	<path display="inline" fill="#EAE8E8" filter="url(#AI_BevelShadow_1)" d="M439.329,411.062c0,14.354,0.303,27.514,0.92,39.476
		c0.612,11.963,1.75,22.329,3.417,31.103c1.662,8.771,3.942,15.688,6.833,20.734c2.891,5.059,6.525,7.576,10.907,7.576
		c4.554,0,8.233-2.518,11.038-7.576c2.8-5.047,5.035-11.963,6.703-20.734c1.662-8.773,2.801-19.14,3.416-31.103
		c0.611-11.962,0.918-25.121,0.918-39.476V13.917h37.848v397.146c0,36.162-1.667,66.066-4.993,89.717
		c-3.331,23.663-7.798,42.404-13.403,56.223c-5.61,13.832-12.004,23.128-19.188,27.912c-7.187,4.785-14.631,7.178-22.339,7.178
		c-7.712,0-15.157-2.131-22.34-6.381c-7.187-4.248-13.581-12.884-19.187-25.918c-5.609-13.021-10.077-31.5-13.403-55.424
		c-3.332-23.926-4.993-55.027-4.993-93.307V13.917h37.846V411.062z"/>
	<path display="inline" fill="#EAE8E8" filter="url(#AI_BevelShadow_1)" d="M650.108,108.02h-67.017v133.978h63.077V336.1h-63.077
		v153.116h69.647v94.104H545.244V13.917h104.864V108.02z"/>
	<path display="inline" fill="#EAE8E8" filter="url(#AI_BevelShadow_1)" d="M702.146,422.228c0,13.295,0.349,25.396,1.051,36.286
		c0.697,10.902,2.012,20.074,3.943,27.513c1.926,7.452,4.508,13.296,7.752,17.544c3.24,4.262,7.313,6.381,12.223,6.381
		c5.781,0,10.992-5.707,15.637-17.146c4.641-11.426,6.965-29.107,6.965-53.033c0-12.759-0.569-23.787-1.709-33.096
		c-1.14-9.295-3.021-17.668-5.65-25.12c-2.629-7.438-6.09-14.218-10.382-20.335c-4.294-6.106-9.592-12.361-15.899-18.741
		c-8.41-8.498-15.684-17.806-21.814-27.911c-6.135-10.094-11.261-21.932-15.374-35.489c-4.12-13.557-7.142-29.232-9.069-47.051
		c-1.929-17.807-2.891-38.404-2.891-61.805c0-56.347,5.167-98.352,15.508-126.002c10.336-27.637,24.528-41.469,42.576-41.469
		c8.41,0,16.164,2.792,23.26,8.374s13.227,14.629,18.399,27.114c5.164,12.499,9.196,28.448,12.088,47.849
		c2.891,19.414,4.336,42.666,4.336,69.781v15.949h-36.269c0-27.114-1.578-47.974-4.73-62.602
		c-3.154-14.616-8.41-21.931-15.77-21.931c-4.205,0-7.713,1.87-10.514,5.583c-2.804,3.726-5.038,8.648-6.701,14.754
		c-1.668,6.118-2.804,13.159-3.417,21.133c-0.616,7.975-0.92,16.224-0.92,24.722c0,17.545,1.224,32.298,3.681,44.26
		c2.451,11.962,7.708,23.002,15.769,33.095l29.173,38.28c7.183,9.569,13.051,19.538,17.608,29.905
		c4.556,10.368,8.189,21.532,10.908,33.495c2.714,11.961,4.599,25.12,5.65,39.475c1.051,14.355,1.576,30.304,1.576,47.849
		c0,60.085-5.74,103.81-17.214,131.186c-11.479,27.389-27.465,41.071-47.965,41.071c-21.38,0-36.664-14.081-45.861-42.268
		c-9.199-28.174-13.799-68.582-13.799-121.217V405.48h37.846V422.228z"/>
	<rect id="_x3C_Slice_x3E__1_" x="-3" display="inline" fill="none" width="806" height="602"/>
</g>
<g>
	<path fill="#EAE8E8" filter="url(#AI_BevelShadow_1)" d="M6.923,180.756c0.86-36.848,2.753-68.461,5.677-94.828
		c2.925-26.355,7.141-46.936,12.646-61.74C30.752,9.396,38.15,1.993,47.441,1.993S64.13,9.396,69.636,24.188
		c5.505,14.805,9.721,35.385,12.646,61.74c2.924,26.367,4.817,57.98,5.677,94.828c0.86,36.859,1.291,77.074,1.291,120.655
		c0,44.122-0.431,84.476-1.291,121.058c-0.86,36.596-2.752,68.069-5.677,94.426c-2.925,26.368-7.141,46.544-12.646,60.527
		c-5.505,13.985-12.903,20.984-22.194,20.984s-16.689-6.999-22.194-20.984c-5.506-13.983-9.722-34.159-12.646-60.527
		c-2.924-26.356-4.817-57.83-5.677-94.426c-0.86-36.582-1.291-76.936-1.291-121.058C5.633,257.83,6.063,217.615,6.923,180.756z
		 M31.011,400.275c0.4,27.174,1.204,49.229,2.408,66.177c1.205,16.948,2.925,29.332,5.162,37.126
		c2.236,7.806,5.188,11.701,8.86,11.701c3.669,0,6.624-3.896,8.86-11.701c2.237-7.794,3.958-20.178,5.162-37.126
		c1.204-16.947,2.005-39.003,2.408-66.177c0.4-27.163,0.602-60.127,0.602-98.864c0-38.74-0.202-71.551-0.602-98.462
		c-0.403-26.897-1.205-48.952-2.408-66.177c-1.205-17.214-2.925-29.723-5.162-37.528c-2.237-7.794-5.191-11.702-8.86-11.702
		c-3.672,0-6.624,3.908-8.86,11.702c-2.237,7.806-3.958,20.314-5.162,37.528c-1.205,17.225-2.008,39.279-2.408,66.177
		c-0.403,26.911-0.603,59.722-0.603,98.462C30.408,340.148,30.607,373.112,31.011,400.275z"/>
	<path fill="#EAE8E8" filter="url(#AI_BevelShadow_1)" d="M145.338,13.292c5.046,0,9.721,2.422,14.022,7.264
		c4.301,4.843,8,12.913,11.098,24.212c3.097,11.299,5.505,26.368,7.226,45.194c1.72,18.841,2.58,41.968,2.58,69.407
		c0,31.21-1.548,57.982-4.645,80.302c-3.097,22.333-7.743,37.527-13.936,45.599v1.614c6.882,4.312,12.329,18.032,16.345,41.159
		c4.014,23.141,6.022,54.073,6.022,92.811c0,22.599-0.632,44.125-1.893,64.565c-1.263,20.454-3.414,38.335-6.452,53.67
		c-3.041,15.333-6.998,27.577-11.872,36.722c-4.876,9.153-10.925,13.719-18.151,13.719h-41.809V13.292H145.338z M135.704,249.759
		c6.882,0,11.898-5.775,15.055-17.352c3.153-11.563,4.731-31.071,4.731-58.511s-1.435-46.811-4.301-58.108
		c-2.869-11.298-7.398-16.948-13.592-16.948h-8.946v150.919H135.704z M138.285,503.981c5.962,0,10.779-6.179,14.453-18.562
		c3.669-12.37,5.505-35.233,5.505-68.601c0-16.67-0.49-30.528-1.463-41.562c-0.976-11.021-2.295-19.898-3.957-26.632
		c-1.664-6.722-3.643-11.426-5.936-14.125c-2.296-2.686-4.817-4.034-7.57-4.034H128.65v173.517H138.285z"/>
	<path fill="#EAE8E8" filter="url(#AI_BevelShadow_1)" d="M219.493,426.504c0,13.455,0.229,25.7,0.688,36.722
		c0.457,11.033,1.317,20.315,2.581,27.843c1.261,7.541,2.952,13.454,5.076,17.756c2.121,4.312,4.788,6.455,8,6.455
		c3.785,0,7.196-5.775,10.237-17.352c3.038-11.563,4.56-29.457,4.56-53.669c0-12.912-0.374-24.072-1.119-33.492
		c-0.748-9.407-1.979-17.882-3.699-25.424c-1.72-7.526-3.986-14.387-6.796-20.579c-2.812-6.178-6.28-12.508-10.409-18.965
		c-5.505-8.601-10.266-18.02-14.28-28.248c-4.016-10.213-7.371-22.194-10.065-35.913c-2.696-13.721-4.675-29.584-5.936-47.617
		c-1.263-18.019-1.892-38.863-1.892-62.546c0-57.023,3.381-99.532,10.151-127.515c6.767-27.969,16.057-41.967,27.873-41.967
		c5.505,0,10.581,2.825,15.226,8.476c4.646,5.647,8.66,14.803,12.044,27.439c3.381,12.646,6.021,28.788,7.914,48.423
		c1.893,19.646,2.839,43.178,2.839,70.617v16.141h-23.743c0-27.439-1.033-48.549-3.098-63.354
		c-2.064-14.793-5.505-22.193-10.323-22.193c-2.752,0-5.048,1.891-6.882,5.647c-1.836,3.771-3.299,8.752-4.387,14.932
		c-1.092,6.191-1.836,13.316-2.237,21.388c-0.403,8.069-0.602,16.418-0.602,25.018c0,17.756,0.801,32.686,2.409,44.792
		c1.605,12.106,5.045,23.279,10.323,33.492l19.098,38.739c4.702,9.684,8.543,19.773,11.527,30.265
		c2.981,10.49,5.36,21.791,7.14,33.896c1.777,12.105,3.011,25.422,3.699,39.948c0.688,14.527,1.032,30.668,1.032,48.424
		c0,60.807-3.758,105.057-11.269,132.761c-7.515,27.716-17.98,41.562-31.4,41.562c-13.996,0-24.001-14.248-30.023-42.773
		c-6.021-28.512-9.033-69.407-9.033-122.672v-23.405h24.775V426.504z"/>
	<path fill="#EAE8E8" filter="url(#AI_BevelShadow_1)" d="M360.746,108.524h-26.84v481.005H309.13V108.524h-26.84V13.292h78.456
		V108.524z"/>
	<path fill="#EAE8E8" filter="url(#AI_BevelShadow_1)" d="M416.491,13.292l32.518,576.237h-25.808l-5.678-121.866h-32.69
		l-5.677,121.866h-25.808l32.518-576.237H416.491z M413.222,372.431l-11.872-259.063h-0.344l-11.872,259.063H413.222z"/>
	<path fill="#EAE8E8" filter="url(#AI_BevelShadow_1)" d="M506.904,116.192c-2.124-19.093-5.995-28.65-11.614-28.65
		c-3.097,0-5.65,3.908-7.656,11.702c-2.009,7.806-3.587,20.453-4.732,37.932c-1.148,17.49-1.951,40.353-2.409,68.599
		c-0.46,28.246-0.688,62.825-0.688,103.707c0,43.581,0.314,78.827,0.946,105.725c0.629,26.91,1.605,47.754,2.925,62.547
		c1.317,14.804,2.982,24.753,4.989,29.86c2.006,5.119,4.328,7.666,6.968,7.666c2.178,0,4.216-1.739,6.108-5.245
		c1.893-3.493,3.527-10.492,4.903-20.983s2.465-25.283,3.269-44.388c0.801-19.093,1.205-44.25,1.205-75.46h24.775
		c0,31.21-0.516,60.807-1.548,88.776c-1.032,27.981-2.955,52.459-5.764,73.441c-2.812,20.983-6.769,37.401-11.872,49.23
		c-5.105,11.828-11.729,17.755-19.872,17.755c-9.291,0-16.689-6.999-22.194-20.984c-5.506-13.983-9.722-34.159-12.646-60.527
		c-2.925-26.356-4.817-57.83-5.678-94.426c-0.86-36.582-1.291-76.936-1.291-121.058c0-43.581,0.43-83.796,1.291-120.655
		c0.86-36.848,2.752-68.461,5.678-94.828c2.924-26.355,7.14-46.936,12.646-61.74c5.505-14.791,12.903-22.194,22.194-22.194
		c8.831,0,15.799,6.734,20.904,20.177c5.102,13.455,8.917,30.542,11.441,51.249c2.522,20.717,4.1,43.05,4.731,66.983
		c0.629,23.947,0.947,46.406,0.947,67.391h-24.776C510.087,165.826,509.025,135.296,506.904,116.192z"/>
	<path fill="#EAE8E8" filter="url(#AI_BevelShadow_1)" d="M550,13.292h24.776v481.005h43.872v95.232H550V13.292z"/>
	<path fill="#EAE8E8" filter="url(#AI_BevelShadow_1)" d="M698.309,108.524h-43.873V244.11h41.293v95.232h-41.293v154.954h45.594
		v95.232H629.66V13.292h68.648V108.524z"/>
	<path fill="#EAE8E8" filter="url(#AI_BevelShadow_1)" d="M732.094,426.504c0,13.455,0.227,25.7,0.684,36.722
		c0.452,11.033,1.306,20.315,2.558,27.843c1.25,7.541,2.927,13.454,5.032,17.756c2.104,4.312,4.746,6.455,7.932,6.455
		c3.752,0,7.135-5.775,10.148-17.352c3.012-11.563,4.521-29.457,4.521-53.669c0-12.912-0.37-24.072-1.108-33.492
		c-0.741-9.407-1.962-17.882-3.668-25.424c-1.705-7.526-3.952-14.387-6.737-20.579c-2.788-6.178-6.226-12.508-10.319-18.965
		c-5.459-8.601-10.178-18.02-14.158-28.248c-3.98-10.213-7.307-22.194-9.978-35.913c-2.673-13.721-4.635-29.584-5.886-47.617
		c-1.252-18.019-1.875-38.863-1.875-62.546c0-57.023,3.353-99.532,10.063-127.515c6.708-27.969,15.919-41.967,27.632-41.967
		c5.459,0,10.49,2.825,15.096,8.476c4.605,5.647,8.585,14.803,11.94,27.439c3.353,12.646,5.97,28.788,7.846,48.423
		c1.877,19.646,2.815,43.178,2.815,70.617v16.141h-23.539c0-27.439-1.023-48.549-3.07-63.354
		c-2.047-14.793-5.459-22.193-10.234-22.193c-2.729,0-5.006,1.891-6.822,5.647c-1.821,3.771-3.271,8.752-4.35,14.932
		c-1.083,6.191-1.82,13.316-2.219,21.388c-0.398,8.069-0.596,16.418-0.596,25.018c0,17.756,0.794,32.686,2.387,44.792
		c1.592,12.106,5.003,23.279,10.235,33.492l18.933,38.739c4.662,9.684,8.471,19.773,11.429,30.265
		c2.956,10.49,5.313,21.791,7.079,33.896c1.762,12.105,2.984,25.422,3.666,39.948c0.684,14.527,1.024,30.668,1.024,48.424
		c0,60.807-3.726,105.057-11.173,132.761c-7.449,27.716-17.824,41.562-31.129,41.562c-13.875,0-23.795-14.248-29.765-42.773
		c-5.97-28.512-8.955-69.407-8.955-122.672v-23.405h24.562V426.504z"/>
	<rect id="_x3C_Slice_x3E__2_" x="-3" fill="none" width="797" height="607"/>
</g>
<g display="none">
	<path display="inline" fill="#EAE8E8" filter="url(#AI_BevelShadow_1)" d="M31.167,421.973c0,13.316,0.314,25.435,0.95,36.342
		c0.63,10.92,1.816,20.105,3.559,27.556c1.738,7.462,4.071,13.316,7,17.572c2.925,4.269,6.604,6.391,11.032,6.391
		c5.221,0,9.925-5.718,14.119-17.174c4.188-11.445,6.287-29.153,6.287-53.115c0-12.778-0.514-23.824-1.542-33.146
		c-1.031-9.311-2.729-17.699-5.102-25.161c-2.372-7.45-5.498-14.24-9.372-20.367c-3.88-6.115-8.661-12.381-14.355-18.771
		c-7.593-8.51-14.158-17.833-19.693-27.955c-5.54-10.108-10.166-21.966-13.881-35.543c-3.719-13.58-6.447-29.279-8.186-47.125
		c-1.743-17.835-2.611-38.463-2.611-61.901c0-56.435,4.664-98.506,14-126.198c9.332-27.68,22.145-41.533,38.438-41.533
		c7.593,0,14.593,2.796,20.999,8.387c6.405,5.59,11.941,14.652,16.609,27.157c4.663,12.517,8.304,28.491,10.913,47.923
		c2.611,19.443,3.916,42.73,3.916,69.889v15.975H71.505c0-27.156-1.424-48.049-4.272-62.701
		c-2.847-14.639-7.593-21.965-14.236-21.965c-3.796,0-6.962,1.873-9.49,5.593c-2.533,3.729-4.55,8.66-6.051,14.775
		c-1.504,6.128-2.532,13.179-3.085,21.165c-0.556,7.989-0.83,16.25-0.83,24.762c0,17.571,1.106,32.348,3.323,44.329
		c2.212,11.98,6.957,23.037,14.235,33.148l26.338,38.337c6.484,9.584,11.781,19.57,15.897,29.953
		c4.11,10.382,7.393,21.564,9.847,33.547c2.45,11.979,4.152,25.158,5.101,39.535c0.949,14.377,1.423,30.353,1.423,47.924
		c0,60.179-5.183,103.971-15.54,131.391c-10.362,27.431-24.795,41.134-43.303,41.134c-19.301,0-33.1-14.103-41.404-42.333
		C1.151,521.551-3,481.078-3,428.362v-23.163h34.167V421.973z"/>
	<path display="inline" fill="#EAE8E8" filter="url(#AI_BevelShadow_1)" d="M225.97,107.275h-37.015v476.039h-34.168V107.275
		h-37.015V13.026H225.97V107.275z"/>
	<path display="inline" fill="#EAE8E8" filter="url(#AI_BevelShadow_1)" d="M238.9,178.762c1.185-36.468,3.796-67.754,7.83-93.852
		c4.034-26.083,9.847-46.449,17.438-61.102c7.595-14.638,17.797-21.965,30.609-21.965s23.016,7.327,30.608,21.965
		c7.593,14.652,13.406,35.019,17.439,61.102c4.034,26.098,6.645,57.384,7.83,93.852c1.188,36.477,1.78,76.277,1.78,119.407
		c0,43.669-0.593,83.604-1.78,119.81c-1.186,36.217-3.796,67.367-7.83,93.451c-4.033,26.096-9.847,46.064-17.439,59.904
		c-7.593,13.841-17.796,20.767-30.608,20.767s-23.015-6.926-30.609-20.767c-7.592-13.84-13.404-33.809-17.438-59.904
		c-4.034-26.084-6.646-57.234-7.83-93.451c-1.187-36.205-1.781-76.141-1.781-119.81C237.119,255.039,237.714,215.238,238.9,178.762z
		 M272.12,396.015c0.551,26.894,1.659,48.722,3.32,65.496c1.661,16.771,4.034,29.026,7.119,36.739
		c3.084,7.725,7.154,11.583,12.219,11.583c5.061,0,9.136-3.858,12.22-11.583c3.085-7.713,5.456-19.968,7.117-36.739
		c1.661-16.774,2.766-38.603,3.322-65.496c0.553-26.883,0.831-59.505,0.831-97.846c0-38.337-0.278-70.81-0.831-97.444
		c-0.557-26.619-1.661-48.444-3.322-65.494c-1.661-17.036-4.032-29.415-7.117-37.14c-3.084-7.713-7.159-11.583-12.22-11.583
		c-5.064,0-9.135,3.87-12.219,11.583c-3.085,7.725-5.458,20.104-7.119,37.14c-1.661,17.05-2.77,38.875-3.32,65.494
		c-0.558,26.635-0.832,59.107-0.832,97.444C271.288,336.51,271.562,369.132,272.12,396.015z"/>
	<path display="inline" fill="#EAE8E8" filter="url(#AI_BevelShadow_1)" d="M435.72,13.026c14.235,0,25.307,12.117,33.218,36.341
		c7.908,24.236,11.864,61.103,11.864,110.623c0,38.34-2.296,69.627-6.882,93.852c-4.59,24.234-11.707,39.811-21.354,46.725v1.599
		c8.543,4.267,14.789,13.577,18.744,27.954c3.953,14.377,6.406,37.541,7.355,69.488c0.315,10.658,0.554,22.24,0.712,34.745
		c0.157,12.518,0.315,26.495,0.477,41.934c0.313,30.352,0.788,53.515,1.421,69.488c0.951,15.976,3.005,26.895,6.17,32.747v4.793
		h-37.014c-1.742-7.986-2.848-17.172-3.322-27.555c-0.475-10.385-0.794-21.168-0.949-32.35l-0.948-109.425
		c-0.32-22.364-1.981-39.937-4.983-52.716c-3.008-12.78-8.067-19.17-15.186-19.17h-18.27v241.215h-34.169V13.026H435.72z
		 M421.007,262.229c8.225,0,14.553-6.516,18.983-19.569c4.427-13.042,6.644-35.007,6.644-65.895
		c0-52.716-7.912-79.075-23.729-79.075h-16.133v164.539H421.007z"/>
	<path display="inline" fill="#EAE8E8" filter="url(#AI_BevelShadow_1)" d="M506.188,13.026h34.168v570.288h-34.168V13.026z"/>
	<path display="inline" fill="#EAE8E8" filter="url(#AI_BevelShadow_1)" d="M660.419,107.275h-60.506V241.46h56.945v94.25h-56.945
		v153.355h62.878v94.249h-97.046V13.026h94.674V107.275z"/>
	<path display="inline" fill="#EAE8E8" filter="url(#AI_BevelShadow_1)" d="M707.395,421.973c0,13.316,0.315,25.435,0.95,36.342
		c0.629,10.92,1.815,20.105,3.559,27.556c1.738,7.462,4.071,13.316,6.998,17.572c2.926,4.269,6.604,6.391,11.034,6.391
		c5.221,0,9.925-5.718,14.118-17.174c4.189-11.445,6.288-29.153,6.288-53.115c0-12.778-0.516-23.824-1.542-33.146
		c-1.031-9.311-2.73-17.699-5.103-25.161c-2.372-7.45-5.497-14.24-9.372-20.367c-3.878-6.115-8.66-12.381-14.355-18.771
		c-7.593-8.51-14.159-17.833-19.692-27.955c-5.54-10.108-10.166-21.966-13.882-35.543c-3.718-13.58-6.446-29.279-8.185-47.125
		c-1.743-17.835-2.61-38.463-2.61-61.901c0-56.435,4.663-98.506,13.998-126.198c9.332-27.68,22.146-41.533,38.438-41.533
		c7.593,0,14.593,2.796,21,8.387c6.405,5.59,11.941,14.652,16.608,27.157c4.664,12.517,8.305,28.491,10.914,47.923
		c2.611,19.443,3.916,42.73,3.916,69.889v15.975h-32.743c0-27.156-1.423-48.049-4.273-62.701
		c-2.847-14.639-7.592-21.965-14.235-21.965c-3.796,0-6.961,1.873-9.49,5.593c-2.533,3.729-4.55,8.66-6.052,14.775
		c-1.504,6.128-2.531,13.179-3.084,21.165c-0.557,7.989-0.83,16.25-0.83,24.762c0,17.571,1.105,32.348,3.322,44.329
		c2.213,11.98,6.958,23.037,14.236,33.148l26.338,38.337c6.483,9.584,11.78,19.57,15.897,29.953
		c4.111,10.382,7.393,21.564,9.848,33.547c2.448,11.979,4.151,25.158,5.1,39.535c0.95,14.377,1.423,30.353,1.423,47.924
		c0,60.179-5.183,103.971-15.541,131.391c-10.361,27.431-24.795,41.134-43.302,41.134c-19.302,0-33.101-14.103-41.404-42.333
		c-8.306-28.217-12.457-68.689-12.457-121.405v-23.163h34.167V421.973z"/>
	<rect id="_x3C_Slice_x3E__3_" display="inline" fill="none" width="788" height="598"/>
</g>
<g display="none">
	<g display="inline" filter="url(#AI_BevelShadow_1)">
		<path fill="#EAE8E8" d="M1675.318-288.485c-0.908-10.961-2.373-21.005-4.387-30.144c-2.018-9.126-4.588-16.699-7.712-22.707
			c-3.129-5.994-6.909-9.003-11.341-9.003c-10.488,0-18.049,15.146-22.686,45.412c-4.641,30.278-6.956,80.39-6.956,150.33
			c0,33.41,0.401,63.689,1.21,90.824c0.803,27.147,2.268,50.244,4.386,69.293c2.116,19.061,5.142,33.668,9.073,43.845
			c3.932,10.18,9.021,15.269,15.273,15.269c2.619,0,5.492-1.823,8.62-5.481c3.124-3.645,6.05-9.126,8.771-16.443
			c2.723-7.303,4.992-16.564,6.806-27.794c1.815-11.219,2.723-24.395,2.723-39.541v-57.156h-28.733v-82.996h70.472v301.443h-32.06
			V84.991h-0.605c-5.245,21.923-11.545,37.46-18.902,46.585c-7.363,9.127-16.182,13.703-26.466,13.703
			c-13.308,0-24.148-6.008-32.513-18.008c-8.369-12.001-14.924-30.537-19.66-55.591c-4.739-25.055-7.916-55.982-9.527-92.782
			c-1.615-36.799-2.42-79.471-2.42-128.015c0-46.977,1.158-88.207,3.479-123.708c2.316-35.491,6.301-65.109,11.947-88.868
			c5.643-23.745,13.104-41.62,22.382-53.633c9.272-12.001,20.869-18.008,34.782-18.008c23.789,0,40.93,15.268,51.416,45.803
			c10.481,30.536,15.728,74.26,15.728,131.147h-41.738C1676.679-266.819,1676.225-277.524,1675.318-288.485z"/>
		<path fill="none" stroke="#000000" stroke-miterlimit="10" d="M1675.318-288.485c-0.908-10.961-2.373-21.005-4.387-30.144
			c-2.018-9.126-4.588-16.699-7.712-22.707c-3.129-5.994-6.909-9.003-11.341-9.003c-10.488,0-18.049,15.146-22.686,45.412
			c-4.641,30.278-6.956,80.39-6.956,150.33c0,33.41,0.401,63.689,1.21,90.824c0.803,27.147,2.268,50.244,4.386,69.293
			c2.116,19.061,5.142,33.668,9.073,43.845c3.932,10.18,9.021,15.269,15.273,15.269c2.619,0,5.492-1.823,8.62-5.481
			c3.124-3.645,6.05-9.126,8.771-16.443c2.723-7.303,4.992-16.564,6.806-27.794c1.815-11.219,2.723-24.395,2.723-39.541v-57.156
			h-28.733v-82.996h70.472v301.443h-32.06V84.991h-0.605c-5.245,21.923-11.545,37.46-18.902,46.585
			c-7.363,9.127-16.182,13.703-26.466,13.703c-13.308,0-24.148-6.008-32.513-18.008c-8.369-12.001-14.924-30.537-19.66-55.591
			c-4.739-25.055-7.916-55.982-9.527-92.782c-1.615-36.799-2.42-79.471-2.42-128.015c0-46.977,1.158-88.207,3.479-123.708
			c2.316-35.491,6.301-65.109,11.947-88.868c5.643-23.745,13.104-41.62,22.382-53.633c9.272-12.001,20.869-18.008,34.782-18.008
			c23.789,0,40.93,15.268,51.416,45.803c10.481,30.536,15.728,74.26,15.728,131.147h-41.738
			C1676.679-266.819,1676.225-277.524,1675.318-288.485z"/>
	</g>
	<g display="inline" filter="url(#AI_BevelShadow_1)">
		<path fill="#EAE8E8" d="M1746.697-259.906c1.511-35.749,4.838-66.418,9.98-92c5.142-25.568,12.551-45.533,22.23-59.896
			c9.678-14.352,22.684-21.532,39.016-21.532s29.338,7.18,39.017,21.532c9.679,14.363,17.088,34.328,22.229,59.896
			c5.142,25.582,8.469,56.251,9.98,92c1.512,35.759,2.27,74.772,2.27,117.053c0,42.806-0.758,81.954-2.27,117.444
			c-1.512,35.504-4.839,66.04-9.98,91.608c-5.142,25.581-12.551,45.154-22.229,58.723c-9.679,13.567-22.685,20.357-39.017,20.357
			s-29.338-6.79-39.016-20.357c-9.68-13.568-17.089-33.142-22.23-58.723c-5.143-25.568-8.47-56.104-9.98-91.608
			c-1.514-35.49-2.27-74.638-2.27-117.444C1744.428-185.134,1745.184-224.147,1746.697-259.906z M1789.039-46.939
			c0.705,26.363,2.118,47.76,4.234,64.203c2.117,16.442,5.143,28.456,9.074,36.017c3.932,7.571,9.121,11.352,15.576,11.352
			c6.451,0,11.645-3.781,15.576-11.352c3.932-7.562,6.956-19.575,9.074-36.017c2.116-16.443,3.524-37.84,4.233-64.203
			c0.704-26.353,1.059-58.332,1.059-95.914c0-37.584-0.354-69.415-1.059-95.521c-0.709-26.095-2.117-47.493-4.233-64.205
			c-2.118-16.699-5.143-28.835-9.074-36.407c-3.932-7.562-9.125-11.354-15.576-11.354c-6.455,0-11.645,3.792-15.576,11.354
			c-3.932,7.572-6.957,19.708-9.074,36.407c-2.116,16.712-3.529,38.109-4.234,64.205c-0.709,26.106-1.059,57.937-1.059,95.521
			C1787.98-105.271,1788.33-73.292,1789.039-46.939z"/>
		<path fill="none" stroke="#000000" stroke-miterlimit="10" d="M1746.697-259.906c1.511-35.749,4.838-66.418,9.98-92
			c5.142-25.568,12.551-45.533,22.23-59.896c9.678-14.352,22.684-21.532,39.016-21.532s29.338,7.18,39.017,21.532
			c9.679,14.363,17.088,34.328,22.229,59.896c5.142,25.582,8.469,56.251,9.98,92c1.512,35.759,2.27,74.772,2.27,117.053
			c0,42.806-0.758,81.954-2.27,117.444c-1.512,35.504-4.839,66.04-9.98,91.608c-5.142,25.581-12.551,45.154-22.229,58.723
			c-9.679,13.567-22.685,20.357-39.017,20.357s-29.338-6.79-39.016-20.357c-9.68-13.568-17.089-33.142-22.23-58.723
			c-5.143-25.568-8.47-56.104-9.98-91.608c-1.514-35.49-2.27-74.638-2.27-117.444
			C1744.428-185.134,1745.184-224.147,1746.697-259.906z M1789.039-46.939c0.705,26.363,2.118,47.76,4.234,64.203
			c2.117,16.442,5.143,28.456,9.074,36.017c3.932,7.571,9.121,11.352,15.576,11.352c6.451,0,11.645-3.781,15.576-11.352
			c3.932-7.562,6.956-19.575,9.074-36.017c2.116-16.443,3.524-37.84,4.233-64.203c0.704-26.353,1.059-58.332,1.059-95.914
			c0-37.584-0.354-69.415-1.059-95.521c-0.709-26.095-2.117-47.493-4.233-64.205c-2.118-16.699-5.143-28.835-9.074-36.407
			c-3.932-7.562-9.125-11.354-15.576-11.354c-6.455,0-11.645,3.792-15.576,11.354c-3.932,7.572-6.957,19.708-9.074,36.407
			c-2.116,16.712-3.529,38.109-4.234,64.205c-0.709,26.106-1.059,57.937-1.059,95.521
			C1787.98-105.271,1788.33-73.292,1789.039-46.939z"/>
	</g>
	<g display="inline" filter="url(#AI_BevelShadow_1)">
		<path fill="#EAE8E8" d="M2013.005-422.372l57.163,559.038H2024.8l-9.98-118.229h-57.466l-9.981,118.229h-45.367l57.163-559.038
			H2013.005z M2007.258-73.953l-20.869-251.333h-0.604l-20.87,251.333H2007.258z"/>
		<path fill="none" stroke="#000000" stroke-miterlimit="10" d="M2013.005-422.372l57.163,559.038H2024.8l-9.98-118.229h-57.466
			l-9.981,118.229h-45.367l57.163-559.038H2013.005z M2007.258-73.953l-20.869-251.333h-0.604l-20.87,251.333H2007.258z"/>
	</g>
	<g display="inline" filter="url(#AI_BevelShadow_1)">
		<path fill="#EAE8E8" d="M2085.29-422.372h43.554V44.276h77.125v92.39H2085.29V-422.372z"/>
		<path fill="none" stroke="#000000" stroke-miterlimit="10" d="M2085.29-422.372h43.554V44.276h77.125v92.39H2085.29V-422.372z"/>
	</g>
	<g display="inline" filter="url(#AI_BevelShadow_1)">
		<path fill="#EAE8E8" d="M2260.409-21.493c0,13.052,0.401,24.931,1.21,35.624c0.803,10.705,2.315,19.709,4.537,27.013
			c2.216,7.316,5.188,13.054,8.922,17.225c3.729,4.185,8.416,6.264,14.063,6.264c6.654,0,12.651-5.603,17.996-16.833
			c5.341-11.219,8.015-28.579,8.015-52.067c0-12.529-0.656-23.354-1.965-32.493c-1.314-9.127-3.479-17.348-6.503-24.663
			c-3.025-7.304-7.009-13.958-11.946-19.967c-4.944-5.994-11.041-12.136-18.299-18.399c-9.679-8.343-18.049-17.482-25.104-27.404
			c-7.061-9.912-12.959-21.531-17.693-34.841c-4.74-13.312-8.219-28.702-10.435-46.197c-2.222-17.481-3.327-37.704-3.327-60.679
			c0-55.321,5.945-96.562,17.845-123.709c11.895-27.134,28.226-40.713,48.997-40.713c9.678,0,18.601,2.739,26.767,8.22
			s15.222,14.362,21.171,26.622c5.945,12.271,10.586,27.929,13.913,46.978c3.327,19.06,4.991,41.889,4.991,68.51v15.658h-41.738
			c0-26.62-1.815-47.1-5.444-61.462c-3.63-14.35-9.679-21.531-18.147-21.531c-4.84,0-8.875,1.834-12.098,5.479
			c-3.228,3.66-5.799,8.492-7.713,14.485c-1.919,6.008-3.228,12.92-3.932,20.75c-0.709,7.83-1.059,15.927-1.059,24.271
			c0,17.225,1.408,31.709,4.234,43.455c2.821,11.745,8.869,22.584,18.146,32.494l33.572,37.582
			c8.266,9.395,15.019,19.183,20.265,29.359c5.241,10.18,9.423,21.141,12.552,32.886c3.123,11.745,5.293,24.665,6.503,38.758
			c1.21,14.092,1.814,29.752,1.814,46.977c0,58.993-6.606,101.921-19.811,128.798c-13.208,26.891-31.606,40.323-55.197,40.323
			c-24.603,0-42.192-13.824-52.778-41.498c-10.586-27.661-15.879-67.336-15.879-119.011v-22.706h43.554V-21.493z"/>
		<path fill="none" stroke="#000000" stroke-miterlimit="10" d="M2260.409-21.493c0,13.052,0.401,24.931,1.21,35.624
			c0.803,10.705,2.315,19.709,4.537,27.013c2.216,7.316,5.188,13.054,8.922,17.225c3.729,4.185,8.416,6.264,14.063,6.264
			c6.654,0,12.651-5.603,17.996-16.833c5.341-11.219,8.015-28.579,8.015-52.067c0-12.529-0.656-23.354-1.965-32.493
			c-1.314-9.127-3.479-17.348-6.503-24.663c-3.025-7.304-7.009-13.958-11.946-19.967c-4.944-5.994-11.041-12.136-18.299-18.399
			c-9.679-8.343-18.049-17.482-25.104-27.404c-7.061-9.912-12.959-21.531-17.693-34.841c-4.74-13.312-8.219-28.702-10.435-46.197
			c-2.222-17.481-3.327-37.704-3.327-60.679c0-55.321,5.945-96.562,17.845-123.709c11.895-27.134,28.226-40.713,48.997-40.713
			c9.678,0,18.601,2.739,26.767,8.22s15.222,14.362,21.171,26.622c5.945,12.271,10.586,27.929,13.913,46.978
			c3.327,19.06,4.991,41.889,4.991,68.51v15.658h-41.738c0-26.62-1.815-47.1-5.444-61.462c-3.63-14.35-9.679-21.531-18.147-21.531
			c-4.84,0-8.875,1.834-12.098,5.479c-3.228,3.66-5.799,8.492-7.713,14.485c-1.919,6.008-3.228,12.92-3.932,20.75
			c-0.709,7.83-1.059,15.927-1.059,24.271c0,17.225,1.408,31.709,4.234,43.455c2.821,11.745,8.869,22.584,18.146,32.494
			l33.572,37.582c8.266,9.395,15.019,19.183,20.265,29.359c5.241,10.18,9.423,21.141,12.552,32.886
			c3.123,11.745,5.293,24.665,6.503,38.758c1.21,14.092,1.814,29.752,1.814,46.977c0,58.993-6.606,101.921-19.811,128.798
			c-13.208,26.891-31.606,40.323-55.197,40.323c-24.603,0-42.192-13.824-52.778-41.498c-10.586-27.661-15.879-67.336-15.879-119.011
			v-22.706h43.554V-21.493z"/>
	</g>
	<rect id="_x3C_Slice_x3E_" x="1568" y="-440" display="inline" fill="none" width="817" height="611"/>
	<rect id="_x3C_Slice_x3E__4_" x="1571" y="-440" display="inline" fill="none" width="798" height="598"/>
</g>
</svg>
