<?xml version="1.0" encoding="utf-8"?>
<!-- Generator: Adobe Illustrator 15.1.0, SVG Export Plug-In . SVG Version: 6.00 Build 0)  -->
<!DOCTYPE svg PUBLIC "-//W3C//DTD SVG 1.1//EN" "http://www.w3.org/Graphics/SVG/1.1/DTD/svg11.dtd">
<svg version="1.1" id="Layer_1" xmlns="http://www.w3.org/2000/svg" xmlns:xlink="http://www.w3.org/1999/xlink" x="0px" y="0px"
	 width="765.891px" height="622.469px" viewBox="0 0 765.891 622.469" enable-background="new 0 0 765.891 622.469"
	 xml:space="preserve">
<line fill="none" stroke="#000000" stroke-width="6" stroke-miterlimit="10" x1="440.891" y1="317.894" x2="616.891" y2="317.894"/>
<circle fill="none" stroke="#000000" stroke-width="6" stroke-miterlimit="10" cx="365.942" cy="314.488" r="74.684"/>
<line fill="none" stroke="#000000" stroke-width="6" stroke-miterlimit="10" x1="114.891" y1="317.894" x2="290.891" y2="317.894"/>
<line fill="none" stroke="#000000" stroke-width="6" stroke-miterlimit="10" x1="366.093" y1="239.894" x2="365.689" y2="63.894"/>
<line fill="none" stroke="#000000" stroke-width="6" stroke-miterlimit="10" x1="366.093" y1="564.894" x2="365.689" y2="388.894"/>
<text transform="matrix(1 0 0 1 314.2241 322.5615)" font-family="'HelveticaNeue'" font-size="36" text-decoration=" underline">Notice</text>
<text transform="matrix(1 0 0 1 468.2241 133.5601)" font-family="'HelveticaNeue'" font-size="36" text-decoration=" underline">Goals</text>
<text transform="matrix(1 0 0 1 158.8911 133.5601)" font-family="'HelveticaNeue'" font-size="36" text-decoration=" underline">Obstacles</text>
<text transform="matrix(1 0 0 1 158.8911 388.2285)" font-family="'HelveticaNeue'" font-size="36" text-decoration=" underline">Stories</text>
<text transform="matrix(1 0 0 1 468.2241 388.2285)" font-family="'HelveticaNeue'" font-size="36" text-decoration=" underline">Values</text>
<text transform="matrix(1 0 0 1 158.8911 174.228)"><tspan x="0" y="0" font-family="'HelveticaNeue'" font-size="12">ex: “I self sabotage.”</tspan><tspan x="0" y="14.4" font-family="'HelveticaNeue'" font-size="12">ex: “I can’t sit still.”</tspan><tspan x="0" y="28.8" font-family="'HelveticaNeue'" font-size="12">ex: “I get nervous.”</tspan></text>
<text transform="matrix(1 0 0 1 468.8911 170.228)"><tspan x="0" y="0" font-family="'HelveticaNeue'" font-size="12">ex: “I want to improve at...”</tspan><tspan x="0" y="14.4" font-family="'HelveticaNeue'" font-size="12">ex: “I need to get stuff done.”</tspan><tspan x="0" y="28.8" font-family="'HelveticaNeue'" font-size="12">ex: “I’d like to accomplish...”</tspan></text>
<text transform="matrix(1 0 0 1 468.8911 426.8955)"><tspan x="0" y="0" font-family="'HelveticaNeue'" font-size="12">ex: Integrity</tspan><tspan x="0" y="14.4" font-family="'HelveticaNeue'" font-size="12">ex: Honesty</tspan><tspan x="0" y="28.8" font-family="'HelveticaNeue'" font-size="12">ex: Intelligence</tspan></text>
<text transform="matrix(1 0 0 1 159.5576 423.5625)"><tspan x="0" y="0" font-family="'HelveticaNeue'" font-size="12">ex: “I can’t do it”</tspan><tspan x="0" y="14.4" font-family="'HelveticaNeue'" font-size="12">ex: “If I was only...”</tspan><tspan x="0" y="28.8" font-family="'HelveticaNeue'" font-size="12">ex: “It’s too hard to...”</tspan></text>
<text transform="matrix(1 0 0 1 301.7578 614.8955)" font-family="'HelveticaNeue'" font-size="36">Internal</text>
<text transform="matrix(1 0 0 1 301.7578 34.2275)" font-family="'HelveticaNeue'" font-size="36">External</text>
<text transform="matrix(1 0 0 1 622.2241 322.5615)" font-family="'HelveticaNeue'" font-size="36">Towards</text>
<text transform="matrix(1 0 0 1 10.2231 322.5615)" font-family="'HelveticaNeue'" font-size="36">Away</text>
</svg>
